<svg id="flat" height="512" viewBox="0 0 512 512" width="512" xmlns="http://www.w3.org/2000/svg"><path d="m488 256v-168a32 32 0 0 0 -32-32h-71.13651a32 32 0 0 0 -16.46387 4.56023l-24.79924 14.87954a32 32 0 0 1 -16.46387 4.56023h-271.13651a32 32 0 0 0 -32 32v152z" fill="#cf8300"/><path d="m144 456h-88a32 32 0 0 1 -32-32v-232h120z" fill="#de9400"/><path d="m488 256h-408a56 56 0 0 1 -56-56v-32a32 32 0 0 1 32-32h276.775a32 32 0 0 1 19.99024 7.0122l22.4695 17.9756a32 32 0 0 0 19.99026 7.0122h60.775a32 32 0 0 1 32 32z" fill="#f6bb00"/><path d="m488 256h-360a56 56 0 0 0 -56 56v144h384a32 32 0 0 0 32-32z" fill="#eda600"/><path d="m384 376v-8l16-72h32l16 72v8a32 32 0 0 1 -32 32 32 32 0 0 1 -32-32z" fill="#517ef7"/><circle cx="416" cy="376" fill="#253899" r="8"/><path d="m120 248h368v16h-368z" fill="#cf8300"/><g fill="#de9400"><path d="m136 232h16v48h-16z"/><path d="m176 232h16v48h-16z"/><path d="m216 232h16v48h-16z"/><path d="m256 232h16v48h-16z"/><path d="m296 232h16v48h-16z"/><path d="m336 232h16v48h-16z"/></g><path d="m384 248h64v48h-64z" fill="#486be0"/></svg>